HIERARCHY
ROOT hip
{
  OFFSET 0.0 0.0 0.0
  CHANNELS 6 Xposition Yposition Zposition Zrotation Yrotation Xrotation
  JOINT torso
  {
    OFFSET 0.0 0.0 0.0
    CHANNELS 3 Zrotation Xrotation Yrotation
    JOINT neck
    {
      OFFSET -8.059630999999968 325.56260699999996 64.6221310000002
      CHANNELS 3 Zrotation Xrotation Yrotation
      JOINT head
      {
        OFFSET 34.685424000000125 375.1179809999999 232.79357900000002
        CHANNELS 3 Zrotation Xrotation Yrotation
        End Site
        {
          OFFSET 0.0 0.0 0.0
        }
      }
    }
    JOINT left_collar
    {
      OFFSET -8.059630999999968 325.56260699999996 64.6221310000002
      CHANNELS 3 Zrotation Xrotation Yrotation
      JOINT left_upper_arm
      {
        OFFSET -124.124665 -15.370300999999927 25.582641999999964
        CHANNELS 3 Zrotation Xrotation Yrotation
        JOINT left_forearm
        {
          OFFSET -268.19913399999996 105.06054699999993 114.74548300000004
          CHANNELS 3 Zrotation Xrotation Yrotation
          JOINT left_hand
          {
            OFFSET -235.82003099999991 -10.198180999999977 -38.67455999999993
            CHANNELS 3 Zrotation Xrotation Yrotation
            End Site
            {
              OFFSET 0.0 0.0 0.0
            }
          }
        }
      }
    }
    JOINT right_collar
    {
      OFFSET -8.059630999999968 325.56260699999996 64.6221310000002
      CHANNELS 3 Zrotation Xrotation Yrotation
      JOINT right_upper_arm
      {
        OFFSET 162.73931899999997 -2.8598030000000563 26.244994999999903
        CHANNELS 3 Zrotation Xrotation Yrotation
        JOINT right_forearm
        {
          OFFSET 284.6506340000001 103.07031299999994 145.84521499999994
          CHANNELS 3 Zrotation Xrotation Yrotation
          JOINT right_hand
          {
            OFFSET 226.332337 -12.198241999999937 -49.27258299999994
            CHANNELS 3 Zrotation Xrotation Yrotation
            End Site
            {
              OFFSET 0.0 0.0 0.0
            }
          }
        }
      }
    }
  }
}
MOTION
Frames: 6
Frame Time: 0.01
349.3676043785564 221.5730624026398 786.7290823948847 -0.21154575957241237 -0.9398507792731322 -5.862091689513401 0.2169444935769064 2.5237333441183436 0.024311641685303545 0.611391580018906 -4.473727369643639 0.010312955139580745 0.0 0.0 0.0 0.5542072916414754 -0.2894936157684267 3.148339166440992 0.5709638767356868 0.8446089661422238 1.5692643145939575 3.233311845263996 -0.701203661458589 2.344718446628942 0.0 0.0 0.0 0.6999629502384755 -0.07913345011073915 2.9714276122986836 1.9511019376655623 -1.719304727325355 1.8329327628621317 5.720440812146383 1.2587410543132451 10.222071772557046 0.0 0.0 0.0
349.2768130365791 221.5673874027568 786.7419950093107 -0.2242257266705441 -0.739072074658012 -5.7612023796513245 0.2510113436496775 2.3185155018890624 0.012711900057831545 0.641884443604911 -4.453011416445737 -0.011076339434149606 0.0 0.0 0.0 0.5471764627832296 -0.279666244003082 3.061511114728659 0.585734967713046 0.8557174637158863 1.5826195254356628 3.169139464974263 -0.684924149437357 2.2843413187701813 0.0 0.0 0.0 0.6716312562596138 -0.07505113163143454 2.864823842284272 1.952932219402211 -1.7197425540330258 1.8315225579722256 5.069518567675283 1.1715203400578544 9.437202830265653 0.0 0.0 0.0
349.1878522072726 221.5620741285894 786.7544058195857 -0.2370911948251986 -0.5383647506085499 -5.662054558948079 0.28488419604339016 2.113601275552289 0.0010415030490361292 0.6714150530704327 -4.432208787501085 -0.03184671450690313 0.0 0.0 0.0 0.5400759508759104 -0.2698381390877723 2.974515630123056 0.6022461999165099 0.8687814357579485 1.599266690126153 3.101981830198508 -0.6682633844694431 2.2253293141404322 0.0 0.0 0.0 0.6434704560862488 -0.07104851770653628 2.758739821999607 1.9550876894793252 -1.7215347207178808 1.8331142799692326 4.408480172007769 1.0735456073524694 8.633057173733038 0.0 0.0 0.0
349.1002664149492 221.55600980993896 786.7672314259866 -0.24997543663341837 -0.33871701799638737 -5.565110592866824 0.3184441221950368 1.909971759632811 -0.010649409951252763 0.7002805096778797 -4.411406872004019 -0.05218226427999322 0.0 0.0 0.0 0.5328738992800705 -0.26006385883112654 2.887734337623034 0.6209463728590137 0.8841140091696957 1.6195581277371136 3.029048331090773 -0.6505466857837391 2.1653797326372497 0.0 0.0 0.0 0.6156152133284557 -0.06714388727352182 2.653647732093123 1.9561296985280905 -1.7237819856433454 1.8374015557669587 3.7478703693394686 0.9659736600341741 7.820345992529927 0.0 0.0 0.0
349.0134215089247 221.547930659913 786.7814861834811 -0.26268095966611477 -0.14121625054116274 -5.470824249168175 0.35156186293176717 1.70870359196174 -0.022304303222142215 0.7288602968199686 -4.390720563739034 -0.07231763052915403 0.0 0.0 0.0 0.5255623150306078 -0.25040285016214825 2.8016206077493955 0.6422602948643591 0.9019769383838271 1.6437405707739023 2.947285796363683 -0.631035930664721 2.1017928472372227 0.0 0.0 0.0 0.5882067809726591 -0.06335520580919517 2.550065170835032 1.9544442678616814 -1.72541609945219 1.843890452684287 3.0991608948703555 0.850680999062277 7.010816465458394 0.0 0.0 0.0
348.9265103138292 221.53643282083527 786.798274244758 -0.2749784992368471 0.05294314919709024 -5.379636161070569 0.3840960665347916 1.5109751111466287 -0.03385958673157666 0.7576140209128337 -4.370294960330345 -0.09253628498319696 0.0 0.0 0.0 0.5181609687257649 -0.24091934251809952 2.7167051338250165 0.666571660652293 0.9225641282330614 1.6719304016077878 2.8534442784914438 -0.6089480819147032 2.0314990265107618 0.0 0.0 0.0 0.5613928912231153 -0.059700021470034996 2.448557615228295 1.9482638599259074 -1.7252047918284632 1.8518830356302998 2.4744305449454176 0.7302689139222319 6.216948203714556 0.0 0.0 0.0
